# xmcd CD database file
#
# Track frame offsets:
#	225
#	10153
#	21103
#	34220
#	45090
#	53920
#	64308
#	75315
#	87710
#	98498
#	110053
#
# Disc length: 1652 seconds
#
# Revision: 0
# Processed by: cddbd v1.5.2PL0 Copyright (c) Steve Scherf et al.
# Submitted via: CDex 1.70beta2
#
DISCID=8106710b
DTITLE=Rich, Charlie - USA - Lonely Weekends
DYEAR=1969
DGENRE=Country
TTITLE0=Lonely Weekends
TTITLE1=Unchained Melody
TTITLE2=Stay
TTITLE3=C.C. Rider
TTITLE4=Rebound
TTITLE5=That's How Much I Love You
TTITLE6=Who Will the Next Fool Be
TTITLE7=Big Man
TTITLE8=I Need Your Love
TTITLE9=Break-Up
TTITLE10=Sittin' and Thinkin'
EXTD=YEAR: 1969
EXTT0=
EXTT1=
EXTT2=
EXTT3=
EXTT4=
EXTT5=
EXTT6=
EXTT7=
EXTT8=
EXTT9=
EXTT10=
PLAYORDER=
